# xmcd CD database file
#
# Track frame offsets:
#	150
#	14780
#	33086
#	54526
#	73371
#	93375
#	113577
#	131652
#	150996
#	165601
#	194936
#	213601
#
# Disc length: 3126 seconds
#
# Revision: 0
# Processed by: cddbd v1.4PL0 Copyright (c) Steve Scherf et al.
# Submitted via: CDex 1.50Beta7
#
DISCID=ae0c340c
DTITLE=Denny Snyder - Eclectic
DYEAR=2003
DGENRE=Blues
TTITLE0=Chicken Feed
TTITLE1=Scufflin'
TTITLE2=Snowflake
TTITLE3=Petite Berceuse
TTITLE4=Driving into Town
TTITLE5=Sunrise
TTITLE6=Prelude in C
TTITLE7=Bloozin'
TTITLE8=Joe's Old Rag
TTITLE9=Melancholy Mood
TTITLE10=Breath of Flamenco
TTITLE11=Lullaby
EXTD=YEAR: 2003
EXTT0=
EXTT1=
EXTT2=
EXTT3=
EXTT4=
EXTT5=
EXTT6=
EXTT7=
EXTT8=
EXTT9=
EXTT10=
EXTT11=
PLAYORDER=
